<svg width="203" height="62" viewBox="0 0 203 62" fill="none" xmlns="http://www.w3.org/2000/svg">
<g clip-path="url(#clip0_924_2361)">
<path d="M134.74 18.6232H137.923V34.1726H134.74V18.6232ZM137.923 13.3666H134.74V15.6904H137.923V13.3666ZM123.376 31.8445C122.309 31.8445 121.035 31.5767 121.035 29.417V13.3666H117.851V29.227C117.851 32.0777 119.657 34.1726 122.508 34.1726H123.371V31.8445H123.376ZM131.915 31.8445C130.762 31.8445 129.224 31.8402 129.224 29.417V20.9556H131.915V18.6189H129.224V13.3666H126.041V18.6189H123.333V20.9556H126.041V29.2227C126.041 32.0734 127.846 34.1682 130.697 34.1682H131.915V31.8445ZM107.567 34.1639L114.184 34.1726V18.6232H111.001V31.8272H108.733C107.921 31.8272 107.261 31.1663 107.261 30.3543V18.6232H104.077V30.674C104.077 32.6003 105.641 34.1639 107.567 34.1639ZM149.866 18.6189H145.763C145.763 18.3727 145.469 15.7552 148.976 15.6904H149.866V13.3623H148.976C144.929 13.3623 142.648 15.1073 142.579 18.6189H140.636V20.9556H142.579V34.1682H145.763V20.9556H149.866V18.6189ZM152.056 34.1726H155.239V18.6232H152.056V34.1726ZM155.239 13.3666H152.056V15.6904H155.239V13.3666ZM44.86 13.3968C44.86 9.51814 42.3462 7 38.4632 7H6.40117C2.51814 7 0 9.51382 0 13.3968V45.4632C0 49.3419 2.51382 51.86 6.40117 51.86H38.4632C42.3419 51.86 44.8643 49.3462 44.8643 45.4632L44.86 13.3968ZM38.1651 49.0136H6.6992C4.15946 49.0136 2.85072 47.7049 2.85072 45.1651V13.6949C2.85072 11.1551 4.15946 9.8464 6.6992 9.8464H38.1651C40.7049 9.8464 42.0136 11.1551 42.0136 13.6949V45.1651C42.0136 47.7049 40.7049 49.0136 38.1651 49.0136ZM36.5497 22.2816V34.1682H33.28V22.761C33.28 21.9706 32.7617 21.4566 31.9929 21.4566H30.1442V34.1682H26.8745V21.4609H23.7387V34.1726H20.469V18.6232H32.887C35.1675 18.6232 36.5497 20.0356 36.5497 22.2816ZM17.9855 18.6232V34.8032C17.9855 36.708 17.1346 40.2368 11.58 40.2368H10.2021V37.3688H11.58C13.7655 37.33 14.6726 36.4056 14.7071 34.8248V34.1726H11.973C9.80044 34.1726 8.31029 32.7083 8.31029 30.5098V22.2816C8.31029 20.0917 9.76588 18.6189 11.973 18.6189H17.9855V18.6232ZM14.7158 21.4609H12.8758C12.1026 21.4609 11.58 22.0008 11.58 22.7524V30.0088C11.58 30.7906 12.1328 31.3305 12.9146 31.3305H14.7158V21.4609ZM20.469 40.2411H36.5497V37.3688H20.469V40.2411ZM75.0561 7H73.8899V51.86H75.0561V7Z" fill="#0072CE"/>
<g clip-path="url(#clip1_924_2361)">
<path d="M45 13.4167C45 9.52083 42.4792 7 38.5833 7H6.41667C2.53125 7 0 9.52083 0 13.4167V45.5833C0 49.4792 2.52083 52 6.41667 52H38.5833C42.4792 52 45 49.4792 45 45.5833V13.4167ZM38.2812 49.1458H6.71875C4.16667 49.1458 2.85417 47.8333 2.85417 45.2812V13.7187C2.85417 11.1667 4.16667 9.85417 6.71875 9.85417H38.2812C40.8333 9.85417 42.1458 11.1667 42.1458 13.7187V45.2917C42.1458 47.8333 40.8333 49.1458 38.2812 49.1458ZM36.6667 22.3333V34.2604H33.3854V22.8125C33.3854 22.0208 32.8646 21.5104 32.0937 21.5104H30.2396V34.2604H26.9583V21.5H23.8125V34.25H20.5313V18.6562H32.9896C35.2813 18.6562 36.6667 20.0729 36.6667 22.3333ZM18.0417 18.6562V34.8854C18.0417 36.7917 17.1875 40.3333 11.6146 40.3333H10.2396V37.4583H11.6146C13.8021 37.4167 14.7188 36.5 14.75 34.9062V34.25H12.0104C9.83333 34.25 8.33333 32.7812 8.33333 30.5729V22.3229C8.33333 20.125 9.79167 18.6458 12.0104 18.6458H18.0417V18.6562ZM14.7604 21.5H12.9167C12.1458 21.5 11.6146 22.0417 11.6146 22.7917V30.0729C11.6146 30.8646 12.1667 31.3958 12.9479 31.3958H14.7604V21.5ZM20.5313 40.3437H36.6667V37.4687H20.5313V40.3437Z" fill="url(#paint0_linear_924_2361)"/>
</g>
</g>
<rect x="82" width="121" height="62" fill="#FAFAFA"/>
<path d="M99.68 48.24C98.96 48.24 98.2667 48.0867 97.6 47.78C96.94 47.4667 96.4 47.0467 95.98 46.52L97.22 45.46C97.58 45.8467 97.98 46.1467 98.42 46.36C98.86 46.5733 99.2933 46.68 99.72 46.68C100.32 46.68 100.787 46.5667 101.12 46.34C101.453 46.1067 101.62 45.7867 101.62 45.38C101.62 45.1133 101.543 44.8733 101.39 44.66C101.243 44.4467 100.997 44.2433 100.65 44.05C100.31 43.8567 99.8533 43.6533 99.28 43.44C98.1533 43.02 97.3433 42.5633 96.85 42.07C96.3633 41.5767 96.12 40.9667 96.12 40.24C96.12 39.44 96.4367 38.79 97.07 38.29C97.71 37.79 98.54 37.54 99.56 37.54C100.26 37.54 100.903 37.6733 101.49 37.94C102.077 38.2 102.58 38.58 103 39.08L101.8 40.08C101.187 39.4267 100.433 39.1 99.54 39.1C99.0133 39.1 98.5967 39.2033 98.29 39.41C97.99 39.61 97.84 39.8867 97.84 40.24C97.84 40.58 98.01 40.88 98.35 41.14C98.6967 41.3933 99.32 41.6867 100.22 42.02C100.953 42.2867 101.547 42.5767 102 42.89C102.46 43.2033 102.793 43.56 103 43.96C103.213 44.36 103.32 44.82 103.32 45.34C103.32 46.24 102.997 46.95 102.35 47.47C101.703 47.9833 100.813 48.24 99.68 48.24ZM106.055 48V37.78H107.795V48H106.055ZM106.915 35.92C106.615 35.92 106.358 35.8167 106.145 35.61C105.938 35.3967 105.835 35.14 105.835 34.84C105.835 34.5267 105.938 34.2633 106.145 34.05C106.358 33.83 106.615 33.72 106.915 33.72C107.228 33.72 107.488 33.83 107.695 34.05C107.908 34.2633 108.015 34.5267 108.015 34.84C108.015 35.14 107.908 35.3967 107.695 35.61C107.488 35.8167 107.228 35.92 106.915 35.92ZM111.113 48V37.78H112.853V38.74C113.146 38.3467 113.523 38.05 113.983 37.85C114.45 37.6433 114.966 37.54 115.533 37.54C116.126 37.54 116.663 37.6733 117.143 37.94C117.63 38.2 118.006 38.5667 118.273 39.04C118.586 38.56 119 38.19 119.513 37.93C120.033 37.67 120.606 37.54 121.233 37.54C122.333 37.54 123.206 37.88 123.853 38.56C124.506 39.2333 124.833 40.1467 124.833 41.3V48H123.093V41.8C123.093 40.9467 122.913 40.29 122.553 39.83C122.2 39.37 121.693 39.14 121.033 39.14C120.593 39.14 120.206 39.2533 119.873 39.48C119.546 39.7067 119.29 40.0267 119.103 40.44C118.923 40.8467 118.833 41.32 118.833 41.86V48H117.093V41.8C117.093 40.9267 116.92 40.2667 116.573 39.82C116.233 39.3667 115.726 39.14 115.053 39.14C114.373 39.14 113.836 39.3767 113.443 39.85C113.05 40.3233 112.853 40.9667 112.853 41.78V48H111.113ZM131.667 48.24C130.407 48.24 129.47 47.8667 128.857 47.12C128.25 46.3733 127.947 45.2267 127.947 43.68V37.78H129.687V43.94C129.687 44.8067 129.877 45.47 130.257 45.93C130.637 46.39 131.18 46.62 131.887 46.62C132.667 46.62 133.253 46.3967 133.647 45.95C134.047 45.5033 134.247 44.8467 134.247 43.98V37.78H135.987V48H134.247V47.02C133.92 47.44 133.55 47.75 133.137 47.95C132.73 48.1433 132.24 48.24 131.667 48.24ZM139.416 48V34.38L141.156 33.56V48H139.416ZM147.511 48.24C146.404 48.24 145.534 47.9333 144.901 47.32C144.267 46.7067 143.951 45.8667 143.951 44.8C143.951 44.1133 144.107 43.5167 144.421 43.01C144.734 42.5033 145.177 42.1133 145.751 41.84C146.324 41.56 146.997 41.42 147.771 41.42C148.271 41.42 148.737 41.4767 149.171 41.59C149.611 41.6967 150.024 41.86 150.411 42.08V41.36C150.411 40.5667 150.231 39.9867 149.871 39.62C149.511 39.2467 148.951 39.06 148.191 39.06C147.704 39.06 147.197 39.15 146.671 39.33C146.151 39.51 145.664 39.76 145.211 40.08L144.711 38.62C145.224 38.28 145.807 38.0167 146.461 37.83C147.121 37.6367 147.771 37.54 148.411 37.54C149.624 37.54 150.534 37.85 151.141 38.47C151.747 39.0833 152.051 40 152.051 41.22V48H150.411V47.06C150.011 47.44 149.561 47.7333 149.061 47.94C148.561 48.14 148.044 48.24 147.511 48.24ZM147.771 46.72C148.244 46.72 148.711 46.6033 149.171 46.37C149.637 46.1367 150.051 45.8067 150.411 45.38V43.62C150.071 43.4067 149.684 43.24 149.251 43.12C148.817 43 148.404 42.94 148.011 42.94C147.264 42.94 146.674 43.11 146.241 43.45C145.807 43.7833 145.591 44.24 145.591 44.82C145.591 45.4067 145.784 45.87 146.171 46.21C146.557 46.55 147.091 46.72 147.771 46.72ZM157.625 48.24C156.925 48.24 156.388 48.03 156.015 47.61C155.648 47.19 155.465 46.5867 155.465 45.8V39.3H153.805V37.78H155.465V34.4L157.205 33.56V37.78H159.725V39.3H157.205V45.22C157.205 45.7067 157.288 46.0633 157.455 46.29C157.628 46.51 157.898 46.62 158.265 46.62C158.732 46.62 159.238 46.44 159.785 46.08L159.585 47.78C159.285 47.94 158.972 48.0567 158.645 48.13C158.325 48.2033 157.985 48.24 157.625 48.24ZM161.973 48V37.78H163.713V48H161.973ZM162.833 35.92C162.533 35.92 162.276 35.8167 162.063 35.61C161.856 35.3967 161.753 35.14 161.753 34.84C161.753 34.5267 161.856 34.2633 162.063 34.05C162.276 33.83 162.533 33.72 162.833 33.72C163.146 33.72 163.406 33.83 163.613 34.05C163.826 34.2633 163.933 34.5267 163.933 34.84C163.933 35.14 163.826 35.3967 163.613 35.61C163.406 35.8167 163.146 35.92 162.833 35.92ZM170.951 48.24C169.551 48.24 168.448 47.7633 167.641 46.81C166.834 45.85 166.431 44.5467 166.431 42.9C166.431 41.8 166.614 40.85 166.981 40.05C167.348 39.25 167.868 38.6333 168.541 38.2C169.221 37.76 170.024 37.54 170.951 37.54C171.884 37.54 172.688 37.7567 173.361 38.19C174.041 38.6167 174.561 39.23 174.921 40.03C175.288 40.83 175.471 41.78 175.471 42.88C175.471 43.98 175.288 44.9333 174.921 45.74C174.554 46.54 174.031 47.1567 173.351 47.59C172.678 48.0233 171.878 48.24 170.951 48.24ZM170.951 46.62C171.811 46.62 172.484 46.29 172.971 45.63C173.464 44.9633 173.711 44.0467 173.711 42.88C173.711 41.7067 173.464 40.79 172.971 40.13C172.484 39.47 171.811 39.14 170.951 39.14C170.084 39.14 169.408 39.47 168.921 40.13C168.434 40.7833 168.191 41.7067 168.191 42.9C168.191 44.0667 168.434 44.98 168.921 45.64C169.408 46.2933 170.084 46.62 170.951 46.62ZM178.086 48V37.78H179.826V38.82C180.139 38.3867 180.516 38.0667 180.956 37.86C181.396 37.6467 181.899 37.54 182.466 37.54C183.706 37.54 184.626 37.9167 185.226 38.67C185.826 39.4167 186.126 40.5667 186.126 42.12V48H184.386V41.82C184.386 40.96 184.192 40.3 183.806 39.84C183.426 39.3733 182.886 39.14 182.186 39.14C181.406 39.14 180.816 39.3633 180.416 39.81C180.022 40.25 179.826 40.9067 179.826 41.78V48H178.086Z" fill="#0072CE"/>
<g clip-path="url(#clip2_924_2361)">
<path d="M130.56 9.55823H134.045V26H130.56V9.55823ZM134.045 4H130.56V6.45713H134.045V4ZM118.125 23.5383C116.957 23.5383 115.563 23.2551 115.563 20.9716V4H112.083V20.7706C112.083 23.7849 114.059 26 117.18 26H118.125V23.5383ZM127.473 23.5383C126.21 23.5383 124.527 23.5337 124.527 20.9716V12.0291H127.473V9.55823H124.527V4H121.043V9.55366H118.078V12.0245H121.043V20.766C121.043 23.7804 123.019 25.9954 126.139 25.9954H127.473V23.5383ZM100.82 25.9909L108.064 26V9.55823H104.579V23.52H102.097C101.208 23.52 100.485 22.8213 100.485 21.9626V9.55823H97V22.3006C97 24.3376 98.7116 25.9909 100.82 25.9909ZM147.118 9.55823H142.626C142.626 9.2979 142.305 6.53021 146.144 6.4617H147.118V4H146.144C141.719 4 139.222 5.84513 139.147 9.55823H137.019V12.0291H139.147V26H142.631V12.0291H147.123V9.55823H147.118ZM149.515 26H153V9.55823H149.515V26ZM153 4H149.515V6.45713H153V4Z" fill="#0072CE"/>
</g>
<defs>
<linearGradient id="paint0_linear_924_2361" x1="22.5" y1="52" x2="22.5" y2="7" gradientUnits="userSpaceOnUse">
<stop stop-color="#0B8BD2"/>
<stop offset="1" stop-color="#4EE0FD"/>
</linearGradient>
<clipPath id="clip0_924_2361">
<rect width="155.239" height="44.86" fill="white" transform="translate(0 7)"/>
</clipPath>
<clipPath id="clip1_924_2361">
<rect width="45" height="45" fill="white" transform="translate(0 7)"/>
</clipPath>
<clipPath id="clip2_924_2361">
<rect width="56" height="22" fill="white" transform="translate(97 4)"/>
</clipPath>
</defs>
</svg>
