<svg width="203" height="62" viewBox="0 0 203 62" fill="none" xmlns="http://www.w3.org/2000/svg">
<rect width="77" height="62" fill="#282828"/>
<g clip-path="url(#clip0_112_3361)">
<path d="M134.74 18.6232H137.923V34.1726H134.74V18.6232ZM137.923 13.3666H134.74V15.6904H137.923V13.3666ZM123.376 31.8445C122.309 31.8445 121.035 31.5767 121.035 29.417V13.3666H117.851V29.227C117.851 32.0777 119.657 34.1726 122.508 34.1726H123.371V31.8445H123.376ZM131.915 31.8445C130.762 31.8445 129.224 31.8402 129.224 29.417V20.9556H131.915V18.6189H129.224V13.3666H126.041V18.6189H123.333V20.9556H126.041V29.2227C126.041 32.0734 127.846 34.1682 130.697 34.1682H131.915V31.8445ZM107.567 34.1639L114.184 34.1726V18.6232H111.001V31.8272H108.733C107.921 31.8272 107.261 31.1663 107.261 30.3543V18.6232H104.077V30.674C104.077 32.6003 105.641 34.1639 107.567 34.1639ZM149.866 18.6189H145.763C145.763 18.3727 145.469 15.7552 148.976 15.6904H149.866V13.3623H148.976C144.929 13.3623 142.648 15.1073 142.579 18.6189H140.636V20.9556H142.579V34.1682H145.763V20.9556H149.866V18.6189ZM152.056 34.1726H155.239V18.6232H152.056V34.1726ZM155.239 13.3666H152.056V15.6904H155.239V13.3666ZM44.86 13.3968C44.86 9.51814 42.3462 7 38.4632 7H6.40117C2.51814 7 0 9.51382 0 13.3968V45.4632C0 49.3419 2.51382 51.86 6.40117 51.86H38.4632C42.3419 51.86 44.8643 49.3462 44.8643 45.4632L44.86 13.3968ZM38.1651 49.0136H6.6992C4.15946 49.0136 2.85072 47.7049 2.85072 45.1651V13.6949C2.85072 11.1551 4.15946 9.8464 6.6992 9.8464H38.1651C40.7049 9.8464 42.0136 11.1551 42.0136 13.6949V45.1651C42.0136 47.7049 40.7049 49.0136 38.1651 49.0136ZM36.5497 22.2816V34.1682H33.28V22.761C33.28 21.9706 32.7617 21.4566 31.9929 21.4566H30.1442V34.1682H26.8745V21.4609H23.7387V34.1726H20.469V18.6232H32.887C35.1675 18.6232 36.5497 20.0356 36.5497 22.2816ZM17.9855 18.6232V34.8032C17.9855 36.708 17.1346 40.2368 11.58 40.2368H10.2021V37.3688H11.58C13.7655 37.33 14.6726 36.4056 14.7071 34.8248V34.1726H11.973C9.80044 34.1726 8.31029 32.7083 8.31029 30.5098V22.2816C8.31029 20.0917 9.76588 18.6189 11.973 18.6189H17.9855V18.6232ZM14.7158 21.4609H12.8758C12.1026 21.4609 11.58 22.0008 11.58 22.7524V30.0088C11.58 30.7906 12.1328 31.3305 12.9146 31.3305H14.7158V21.4609ZM20.469 40.2411H36.5497V37.3688H20.469V40.2411ZM75.0561 7H73.8899V51.86H75.0561V7Z" fill="white"/>
</g>
<rect x="75" width="128" height="62" fill="#282828"/>
<path d="M99.68 50.24C98.9467 50.24 98.2467 50.0867 97.58 49.78C96.9267 49.46 96.3933 49.04 95.98 48.52L97.22 47.46C97.98 48.2733 98.8133 48.68 99.72 48.68C100.293 48.68 100.753 48.5733 101.1 48.36C101.447 48.1333 101.62 47.8067 101.62 47.38C101.62 47.06 101.493 46.7733 101.24 46.52C100.987 46.2533 100.727 46.06 100.46 45.94C100.193 45.8067 99.8 45.64 99.28 45.44C98.24 45.0533 97.4533 44.62 96.92 44.14C96.3867 43.66 96.12 43.0267 96.12 42.24C96.12 41.4133 96.44 40.76 97.08 40.28C97.7333 39.7867 98.56 39.54 99.56 39.54C100.987 39.54 102.133 40.0533 103 41.08L101.8 42.08C101.173 41.4267 100.42 41.1 99.54 41.1C99.02 41.1 98.6067 41.2 98.3 41.4C97.9933 41.6 97.84 41.88 97.84 42.24C97.84 42.44 97.8867 42.6267 97.98 42.8C98.0867 42.96 98.2667 43.1133 98.52 43.26C98.7867 43.4067 98.9933 43.52 99.14 43.6C99.3 43.6667 99.5867 43.78 100 43.94C101.08 44.3267 101.9 44.7667 102.46 45.26C103.033 45.7533 103.32 46.4467 103.32 47.34C103.32 48.2467 102.993 48.96 102.34 49.48C101.687 49.9867 100.8 50.24 99.68 50.24ZM107.695 37.62C107.482 37.82 107.222 37.92 106.915 37.92C106.608 37.92 106.348 37.8133 106.135 37.6C105.935 37.3867 105.835 37.1333 105.835 36.84C105.835 36.5333 105.942 36.2733 106.155 36.06C106.368 35.8333 106.622 35.72 106.915 35.72C107.222 35.72 107.482 35.8333 107.695 36.06C107.908 36.2733 108.015 36.5333 108.015 36.84C108.015 37.1467 107.908 37.4067 107.695 37.62ZM106.055 50V39.78H107.795V50H106.055ZM123.093 50V43.8C123.093 42.0267 122.406 41.14 121.033 41.14C120.38 41.14 119.846 41.3933 119.433 41.9C119.033 42.3933 118.833 43.0467 118.833 43.86V50H117.093V43.8C117.093 42.0267 116.413 41.14 115.053 41.14C114.373 41.14 113.833 41.38 113.433 41.86C113.046 42.3267 112.853 42.9667 112.853 43.78V50H111.113V39.78H112.853V40.74C113.453 39.94 114.346 39.54 115.533 39.54C116.106 39.54 116.633 39.6733 117.113 39.94C117.606 40.1933 117.993 40.56 118.273 41.04C118.926 40.04 119.913 39.54 121.233 39.54C122.3 39.54 123.166 39.8667 123.833 40.52C124.5 41.1733 124.833 42.1 124.833 43.3V50H123.093ZM134.227 50V49.02C133.601 49.8333 132.741 50.24 131.647 50.24C130.407 50.24 129.474 49.88 128.847 49.16C128.234 48.44 127.927 47.28 127.927 45.68V39.78H129.667V45.94C129.667 46.86 129.861 47.54 130.247 47.98C130.647 48.4067 131.187 48.62 131.867 48.62C133.441 48.62 134.227 47.74 134.227 45.98V39.78H135.967V50H134.227ZM139.397 50V36.38L141.137 35.56V50H139.397ZM150.391 50V49.06C149.551 49.8467 148.584 50.24 147.491 50.24C146.411 50.24 145.544 49.9467 144.891 49.36C144.251 48.76 143.931 47.9067 143.931 46.8C143.931 45.6933 144.298 44.8533 145.031 44.28C145.764 43.7067 146.671 43.42 147.751 43.42C148.738 43.42 149.618 43.64 150.391 44.08V43.36C150.391 42.5067 150.198 41.9133 149.811 41.58C149.438 41.2333 148.891 41.06 148.171 41.06C147.144 41.06 146.151 41.4 145.191 42.08L144.691 40.62C145.784 39.9 147.018 39.54 148.391 39.54C150.818 39.54 152.031 40.7667 152.031 43.22V50H150.391ZM147.751 48.7C148.751 48.7 149.631 48.2533 150.391 47.36V45.6C149.658 45.1467 148.858 44.92 147.991 44.92C147.284 44.92 146.704 45.08 146.251 45.4C145.798 45.72 145.571 46.1867 145.571 46.8C145.571 47.3733 145.758 47.8333 146.131 48.18C146.518 48.5267 147.058 48.7 147.751 48.7ZM157.818 50.24C156.378 50.24 155.658 49.4267 155.658 47.8V41.3H153.998V39.78H155.658V36.4L157.398 35.56V39.78H159.918V41.3H157.398V47.22C157.398 47.6733 157.472 48.02 157.618 48.26C157.765 48.5 158.045 48.62 158.458 48.62C158.912 48.62 159.418 48.44 159.978 48.08L159.778 49.78C159.192 50.0867 158.538 50.24 157.818 50.24ZM164.199 37.62C163.986 37.82 163.726 37.92 163.419 37.92C163.112 37.92 162.852 37.8133 162.639 37.6C162.439 37.3867 162.339 37.1333 162.339 36.84C162.339 36.5333 162.446 36.2733 162.659 36.06C162.872 35.8333 163.126 35.72 163.419 35.72C163.726 35.72 163.986 35.8333 164.199 36.06C164.412 36.2733 164.519 36.5333 164.519 36.84C164.519 37.1467 164.412 37.4067 164.199 37.62ZM162.559 50V39.78H164.299V50H162.559ZM174.837 48.82C174.024 49.7667 172.924 50.24 171.537 50.24C170.15 50.24 169.05 49.7667 168.237 48.82C167.424 47.8733 167.017 46.5667 167.017 44.9C167.017 43.2333 167.424 41.9267 168.237 40.98C169.05 40.02 170.15 39.54 171.537 39.54C172.924 39.54 174.024 40.0133 174.837 40.96C175.65 41.9067 176.057 43.2133 176.057 44.88C176.057 46.5467 175.65 47.86 174.837 48.82ZM169.497 47.64C169.99 48.2933 170.67 48.62 171.537 48.62C172.404 48.62 173.077 48.2933 173.557 47.64C174.05 46.9733 174.297 46.0533 174.297 44.88C174.297 43.72 174.05 42.8067 173.557 42.14C173.077 41.4733 172.404 41.14 171.537 41.14C170.67 41.14 169.99 41.4733 169.497 42.14C169.017 42.7933 168.777 43.7133 168.777 44.9C168.777 46.06 169.017 46.9733 169.497 47.64ZM185.069 50V43.82C185.069 42.9 184.869 42.2267 184.469 41.8C184.083 41.36 183.549 41.14 182.869 41.14C181.296 41.14 180.509 42.02 180.509 43.78V50H178.769V39.78H180.509V40.82C181.136 39.9667 182.016 39.54 183.149 39.54C184.349 39.54 185.256 39.9067 185.869 40.64C186.496 41.36 186.809 42.52 186.809 44.12V50H185.069Z" fill="white"/>
<path d="M130.56 9.55823H134.045V26H130.56V9.55823ZM134.045 4H130.56V6.45713H134.045V4ZM118.125 23.5383C116.957 23.5383 115.563 23.2551 115.563 20.9716V4H112.083V20.7706C112.083 23.7849 114.059 26 117.18 26H118.125V23.5383ZM127.473 23.5383C126.21 23.5383 124.527 23.5337 124.527 20.9716V12.0291H127.473V9.55823H124.527V4H121.043V9.55366H118.078V12.0245H121.043V20.766C121.043 23.7804 123.019 25.9954 126.139 25.9954H127.473V23.5383ZM100.82 25.9909L108.064 26V9.55823H104.579V23.52H102.097C101.208 23.52 100.485 22.8213 100.485 21.9626V9.55823H97V22.3006C97 24.3376 98.7116 25.9909 100.82 25.9909ZM147.118 9.55823H142.626C142.626 9.2979 142.305 6.53021 146.144 6.4617H147.118V4H146.144C141.719 4 139.222 5.84513 139.147 9.55823H137.019V12.0291H139.147V26H142.631V12.0291H147.123V9.55823H147.118ZM149.515 26H153V9.55823H149.515V26ZM153 4H149.515V6.45713H153V4Z" fill="white"/>
<defs>
<clipPath id="clip0_112_3361">
<rect width="155.239" height="44.86" fill="white" transform="translate(0 7)"/>
</clipPath>
</defs>
</svg>
